<?xml version="1.0" encoding="utf-8"?>
<!-- Generator: Adobe Illustrator 23.0.4, SVG Export Plug-In . SVG Version: 6.00 Build 0)  -->
<svg xmlns="http://www.w3.org/2000/svg" xmlns:xlink="http://www.w3.org/1999/xlink" version="1.1" id="Layer_1" x="0px" y="0px" viewBox="0 0 595.3 595.3" style="enable-background:new 0 0 595.3 595.3;" xml:space="preserve">
<style type="text/css">
	.st0{fill:url(#SVGID_1_);}
	.st1{fill:#FFFFFF;}
</style>
<linearGradient id="SVGID_1_" gradientUnits="userSpaceOnUse" x1="297.6" y1="593.4084" x2="297.6" y2="-833.0159" gradientTransform="matrix(1 0 0 -1 0 595.89)">
	<stop offset="0" style="stop-color:#3D63AC"/>
	<stop offset="0.9658" style="stop-color:#2581C4;stop-opacity:0"/>
</linearGradient>
<path class="st0" d="M0,566.9c0,15.6,12.8,28.3,28.3,28.3h538.6c15.6,0,28.3-12.8,28.3-28.3V28.3c0-15.6-12.8-28.3-28.3-28.3H28.3  C12.8,0,0,12.8,0,28.3V566.9z"/>
<g>
	<g>
		<path class="st1" d="M115.7,314.5c-1-3.3-2.5-6.3-4.4-8.9s-4.3-4.8-7.1-6.5c-2.8-1.7-6-2.5-9.6-2.5c-4.8,0-9.3,1.1-13.7,3.2    c-4.4,2.2-8.2,5-11.3,8.6v-9.7h-33v128.5h33V328c0.8-0.9,1.3-1.5,1.5-1.7s0.5-0.5,0.9-0.9l2.1-2c0.7-0.6,1.4-1.1,2.3-1.4    c0.9-0.4,1.7-0.6,2.5-0.6c3.6,0,5.5,2.9,5.5,8.5v97.2h33v-103C117.2,321,116.7,317.8,115.7,314.5z"/>
		<path class="st1" d="M212.4,393.1v-60.7c0-9.8-3.7-18.2-11.1-25.4c-7.4-7.1-15.9-10.7-25.7-10.7c-14,0-24.7,4-32.1,11.8    c-7.4,7.9-11.1,19.1-11.1,33.8h32v-7.2c0-2,0.1-3.6,0.2-4.9c0.2-1.2,0.4-2.6,0.9-4c0.4-1.5,1.3-2.6,2.4-3.4    c1.1-0.7,2.6-1.1,4.4-1.1c2.7,0,4.6,1.1,5.7,3.3c1.1,2.2,1.7,5.6,1.7,10.1v10.8c-4.4,1.8-8.1,3.4-11.1,4.8c-2.9,1.3-6.3,3-10,5    s-6.8,3.9-9.2,5.8s-4.9,4.1-7.4,6.8c-2.5,2.7-4.5,5.5-5.9,8.4s-2.6,6.2-3.5,10s-1.4,7.9-1.4,12.3c0,3.9,0.5,7.6,1.4,11.2    c1,3.6,2.4,6.9,4.4,10s4.7,5.6,8.3,7.4c3.5,1.8,7.6,2.7,12.3,2.7c6.4,0,11.8-1.2,16.1-3.6s7.4-6.6,9.3-12.5l3.2,13.2h30.2    C213.7,415,212.4,403.7,212.4,393.1z M177.1,401.4c-0.6,0.7-1.6,1.4-2.9,2.3c-1.3,0.9-2.7,1.3-4.1,1.3c-2.4,0-4.1-0.9-5.1-2.8    s-1.5-4.1-1.5-6.7c0-10.5,5.4-20.1,16.2-28.8l0.1,31.4C178.6,399.7,177.7,400.8,177.1,401.4z"/>
		<path class="st1" d="M303.7,305.7c-5.1-6.2-11.4-9.3-18.9-9.3c-4.1,0-8,1.1-11.7,3.2s-6.9,4.9-9.5,8.4v-9.3h-33v179    c10,8,21.3,17.4,33,27.8v-87.9c2.6,3.9,5.9,6.9,9.8,9.1s8.1,3.3,12.4,3.3c7.3,0,13.3-2.7,18.2-8.2c4.9-5.5,7.4-11.8,7.4-19.1    v-75.5C311.3,319,308.8,311.9,303.7,305.7z M278.3,395.9c0,1.8-0.1,3.2-0.3,4.3c-0.2,1.2-0.7,2.2-1.5,3.3    c-0.9,1.1-2.1,1.6-3.7,1.6c-2.8,0-5.9-2.3-9.3-7v-69.3c3.7-4.9,6.8-7.4,9.3-7.4c3.7,0,5.5,2.8,5.5,8.4V395.9z"/>
		<path class="st1" d="M417.3,298.6h-35.4l-20.1,45v-45h-33V427h33v-49.5l4.4-7.5l16.8,57h34.2l-31.4-73.8L417.3,298.6z"/>
		<path class="st1" d="M426.5,298.6v128.5h33V298.6H426.5z"/>
		<path class="st1" d="M557.2,314.5c-1-3.3-2.5-6.3-4.4-8.9s-4.3-4.8-7.1-6.5s-6-2.5-9.6-2.5c-4.8,0-9.4,1.1-13.8,3.2    c-4.4,2.2-8.2,5-11.3,8.6v-9.7h-33v128.5h33V328c0.8-0.9,1.3-1.5,1.5-1.7s0.5-0.5,0.9-0.9l2.1-2c0.7-0.6,1.4-1.1,2.3-1.4    c0.9-0.4,1.7-0.6,2.5-0.6c3.7,0,5.5,2.9,5.5,8.5v97.2h33v-103C558.8,321,558.2,317.8,557.2,314.5z"/>
	</g>
	<rect x="426.5" y="252.5" class="st1" width="33" height="35"/>
	<g>
		<rect x="380.6" y="117.8" class="st1" width="8.8" height="8.8"/>
		<rect x="310.1" y="106.1" class="st1" width="8.8" height="8.8"/>
		<rect x="357.1" y="117.8" class="st1" width="8.8" height="8.8"/>
		<rect x="368.8" y="117.8" class="st1" width="8.8" height="8.8"/>
		<rect x="321.9" y="106.1" class="st1" width="8.8" height="8.8"/>
		<rect x="110.5" y="141.3" class="st1" width="8.8" height="8.8"/>
		<rect x="239.7" y="200" class="st1" width="8.8" height="8.8"/>
		<rect x="239.7" y="235.2" class="st1" width="8.8" height="8.8"/>
		<rect x="227.9" y="129.5" class="st1" width="8.8" height="8.8"/>
		<rect x="239.7" y="188.2" class="st1" width="8.8" height="8.8"/>
		<rect x="239.7" y="141.3" class="st1" width="8.8" height="8.8"/>
		<rect x="239.7" y="164.8" class="st1" width="8.8" height="8.8"/>
		<rect x="239.7" y="153" class="st1" width="8.8" height="8.8"/>
		<rect x="239.7" y="176.5" class="st1" width="8.8" height="8.8"/>
		<rect x="216.2" y="188.2" class="st1" width="8.8" height="8.8"/>
		<rect x="216.2" y="129.5" class="st1" width="8.8" height="8.8"/>
		<rect x="216.2" y="200" class="st1" width="8.8" height="8.8"/>
		<rect x="216.2" y="164.8" class="st1" width="8.8" height="8.8"/>
		<rect x="216.2" y="153" class="st1" width="8.8" height="8.8"/>
		<rect x="227.9" y="141.3" class="st1" width="8.8" height="8.8"/>
		<rect x="227.9" y="176.5" class="st1" width="8.8" height="8.8"/>
		<rect x="227.9" y="153" class="st1" width="8.8" height="8.8"/>
		<rect x="227.9" y="188.2" class="st1" width="8.8" height="8.8"/>
		<rect x="227.9" y="211.7" class="st1" width="8.8" height="8.8"/>
		<rect x="227.9" y="223.5" class="st1" width="8.8" height="8.8"/>
		<rect x="227.9" y="200" class="st1" width="8.8" height="8.8"/>
		<rect x="216.2" y="211.7" class="st1" width="8.8" height="8.8"/>
		<rect x="263.2" y="153" class="st1" width="8.8" height="8.8"/>
		<rect x="263.2" y="164.8" class="st1" width="8.8" height="8.8"/>
		<rect x="263.2" y="176.5" class="st1" width="8.8" height="8.8"/>
		<rect x="263.2" y="188.2" class="st1" width="8.8" height="8.8"/>
		<rect x="251.4" y="117.8" class="st1" width="8.8" height="8.8"/>
		<rect x="263.2" y="129.5" class="st1" width="8.8" height="8.8"/>
		<rect x="263.2" y="117.8" class="st1" width="8.8" height="8.8"/>
		<rect x="263.2" y="141.3" class="st1" width="8.8" height="8.8"/>
		<rect x="263.2" y="106.1" class="st1" width="8.8" height="8.8"/>
		<rect x="251.4" y="129.5" class="st1" width="8.8" height="8.8"/>
		<rect x="251.4" y="153" class="st1" width="8.8" height="8.8"/>
		<rect x="251.4" y="141.3" class="st1" width="8.8" height="8.8"/>
		<rect x="251.4" y="176.5" class="st1" width="8.8" height="8.8"/>
		<rect x="251.4" y="164.8" class="st1" width="8.8" height="8.8"/>
		<rect x="239.7" y="129.5" class="st1" width="8.8" height="8.8"/>
		<rect x="216.2" y="117.8" class="st1" width="8.8" height="8.8"/>
		<rect x="145.8" y="106.1" class="st1" width="8.8" height="8.8"/>
		<rect x="145.8" y="117.8" class="st1" width="8.8" height="8.8"/>
		<rect x="145.8" y="211.7" class="st1" width="8.8" height="8.8"/>
		<rect x="145.8" y="223.5" class="st1" width="8.8" height="8.8"/>
		<rect x="145.8" y="129.5" class="st1" width="8.8" height="8.8"/>
		<rect x="145.8" y="235.2" class="st1" width="8.8" height="8.8"/>
		<rect x="134" y="211.7" class="st1" width="8.8" height="8.8"/>
		<rect x="134" y="153" class="st1" width="8.8" height="8.8"/>
		<rect x="134" y="106.1" class="st1" width="8.8" height="8.8"/>
		<rect x="122.3" y="94.3" class="st1" width="8.8" height="8.8"/>
		<rect x="122.3" y="117.8" class="st1" width="8.8" height="8.8"/>
		<rect x="122.3" y="129.5" class="st1" width="8.8" height="8.8"/>
		<rect x="216.2" y="223.5" class="st1" width="8.8" height="8.8"/>
		<rect x="134" y="246.9" class="st1" width="8.8" height="8.8"/>
		<rect x="134" y="235.2" class="st1" width="8.8" height="8.8"/>
		<rect x="145.8" y="94.3" class="st1" width="8.8" height="8.8"/>
		<rect x="157.5" y="94.3" class="st1" width="8.8" height="8.8"/>
		<rect x="169.2" y="106.1" class="st1" width="8.8" height="8.8"/>
		<rect x="157.5" y="117.8" class="st1" width="8.8" height="8.8"/>
		<rect x="157.5" y="106.1" class="st1" width="8.8" height="8.8"/>
		<rect x="157.5" y="223.5" class="st1" width="8.8" height="8.8"/>
		<rect x="134" y="223.5" class="st1" width="8.8" height="8.8"/>
		<rect x="87.1" y="141.3" class="st1" width="8.8" height="8.8"/>
		<rect x="87.1" y="153" class="st1" width="8.8" height="8.8"/>
		<rect x="98.8" y="164.8" class="st1" width="8.8" height="8.8"/>
		<rect x="87.1" y="117.8" class="st1" width="8.8" height="8.8"/>
		<rect x="75.3" y="117.8" class="st1" width="8.8" height="8.8"/>
		<rect x="75.3" y="129.5" class="st1" width="8.8" height="8.8"/>
		<rect x="87.1" y="164.8" class="st1" width="8.8" height="8.8"/>
		<rect x="98.8" y="176.5" class="st1" width="8.8" height="8.8"/>
		<rect x="98.8" y="200" class="st1" width="8.8" height="8.8"/>
		<rect x="110.5" y="200" class="st1" width="8.8" height="8.8"/>
		<rect x="87.1" y="176.5" class="st1" width="8.8" height="8.8"/>
		<rect x="122.3" y="141.3" class="st1" width="8.8" height="8.8"/>
		<rect x="87.1" y="129.5" class="st1" width="8.8" height="8.8"/>
		<rect x="51.8" y="129.5" class="st1" width="8.8" height="8.8"/>
		<rect x="40.1" y="129.5" class="st1" width="8.8" height="8.8"/>
		<rect x="51.8" y="141.3" class="st1" width="8.8" height="8.8"/>
		<rect x="63.6" y="141.3" class="st1" width="8.8" height="8.8"/>
		<rect x="63.6" y="153" class="st1" width="8.8" height="8.8"/>
		<rect x="40.1" y="141.3" class="st1" width="8.8" height="8.8"/>
		<rect x="75.3" y="141.3" class="st1" width="8.8" height="8.8"/>
		<rect x="75.3" y="153" class="st1" width="8.8" height="8.8"/>
		<rect x="63.6" y="129.5" class="st1" width="8.8" height="8.8"/>
		<rect x="75.3" y="164.8" class="st1" width="8.8" height="8.8"/>
		<rect x="75.3" y="176.5" class="st1" width="8.8" height="8.8"/>
		<rect x="87.1" y="188.2" class="st1" width="8.8" height="8.8"/>
		<rect x="110.5" y="176.5" class="st1" width="8.8" height="8.8"/>
		<rect x="122.3" y="246.9" class="st1" width="8.8" height="8.8"/>
		<rect x="122.3" y="258.7" class="st1" width="8.8" height="8.8"/>
		<rect x="122.3" y="270.4" class="st1" width="8.8" height="8.8"/>
		<rect x="122.3" y="235.2" class="st1" width="8.8" height="8.8"/>
		<rect x="122.3" y="200" class="st1" width="8.8" height="8.8"/>
		<rect x="122.3" y="153" class="st1" width="8.8" height="8.8"/>
		<rect x="122.3" y="223.5" class="st1" width="8.8" height="8.8"/>
		<rect x="122.3" y="211.7" class="st1" width="8.8" height="8.8"/>
		<rect x="122.3" y="164.8" class="st1" width="8.8" height="8.8"/>
		<rect x="98.8" y="141.3" class="st1" width="8.8" height="8.8"/>
		<rect x="110.5" y="164.8" class="st1" width="8.8" height="8.8"/>
		<rect x="98.8" y="106.1" class="st1" width="8.8" height="8.8"/>
		<rect x="98.8" y="153" class="st1" width="8.8" height="8.8"/>
		<rect x="98.8" y="129.5" class="st1" width="8.8" height="8.8"/>
		<rect x="110.5" y="153" class="st1" width="8.8" height="8.8"/>
		<rect x="110.5" y="106.1" class="st1" width="8.8" height="8.8"/>
		<rect x="110.5" y="117.8" class="st1" width="8.8" height="8.8"/>
		<rect x="204.5" y="200" class="st1" width="8.8" height="8.8"/>
		<rect x="204.5" y="211.7" class="st1" width="8.8" height="8.8"/>
		<rect x="204.5" y="164.8" class="st1" width="8.8" height="8.8"/>
		<rect x="204.5" y="188.2" class="st1" width="8.8" height="8.8"/>
		<rect x="192.7" y="153" class="st1" width="8.8" height="8.8"/>
		<rect x="192.7" y="176.5" class="st1" width="8.8" height="8.8"/>
		<rect x="204.5" y="141.3" class="st1" width="8.8" height="8.8"/>
		<rect x="204.5" y="223.5" class="st1" width="8.8" height="8.8"/>
		<rect x="192.7" y="188.2" class="st1" width="8.8" height="8.8"/>
		<rect x="192.7" y="164.8" class="st1" width="8.8" height="8.8"/>
		<rect x="204.5" y="153" class="st1" width="8.8" height="8.8"/>
		<rect x="216.2" y="246.9" class="st1" width="8.8" height="8.8"/>
		<rect x="216.2" y="235.2" class="st1" width="8.8" height="8.8"/>
		<rect x="204.5" y="129.5" class="st1" width="8.8" height="8.8"/>
		<rect x="204.5" y="235.2" class="st1" width="8.8" height="8.8"/>
		<rect x="192.7" y="200" class="st1" width="8.8" height="8.8"/>
		<rect x="181" y="200" class="st1" width="8.8" height="8.8"/>
		<rect x="181" y="188.2" class="st1" width="8.8" height="8.8"/>
		<rect x="181" y="129.5" class="st1" width="8.8" height="8.8"/>
		<rect x="357.1" y="141.3" class="st1" width="8.8" height="8.8"/>
		<rect x="345.3" y="258.7" class="st1" width="8.8" height="8.8"/>
		<rect x="333.6" y="153" class="st1" width="8.8" height="8.8"/>
		<rect x="333.6" y="211.7" class="st1" width="8.8" height="8.8"/>
		<rect x="333.6" y="235.2" class="st1" width="8.8" height="8.8"/>
		<rect x="333.6" y="246.9" class="st1" width="8.8" height="8.8"/>
		<rect x="333.6" y="141.3" class="st1" width="8.8" height="8.8"/>
		<rect x="333.6" y="129.5" class="st1" width="8.8" height="8.8"/>
		<rect x="333.6" y="117.8" class="st1" width="8.8" height="8.8"/>
		<rect x="345.3" y="117.8" class="st1" width="8.8" height="8.8"/>
		<rect x="345.3" y="246.9" class="st1" width="8.8" height="8.8"/>
		<rect x="345.3" y="129.5" class="st1" width="8.8" height="8.8"/>
		<rect x="345.3" y="235.2" class="st1" width="8.8" height="8.8"/>
		<rect x="321.9" y="246.9" class="st1" width="8.8" height="8.8"/>
		<rect x="357.1" y="129.5" class="st1" width="8.8" height="8.8"/>
		<rect x="368.8" y="129.5" class="st1" width="8.8" height="8.8"/>
		<rect x="368.8" y="258.7" class="st1" width="8.8" height="8.8"/>
		<rect x="298.4" y="129.5" class="st1" width="8.8" height="8.8"/>
		<rect x="286.6" y="117.8" class="st1" width="8.8" height="8.8"/>
		<rect x="298.4" y="141.3" class="st1" width="8.8" height="8.8"/>
		<rect x="298.4" y="117.8" class="st1" width="8.8" height="8.8"/>
		<rect x="298.4" y="106.1" class="st1" width="8.8" height="8.8"/>
		<rect x="286.6" y="129.5" class="st1" width="8.8" height="8.8"/>
		<rect x="286.6" y="141.3" class="st1" width="8.8" height="8.8"/>
		<rect x="286.6" y="164.8" class="st1" width="8.8" height="8.8"/>
		<rect x="286.6" y="106.1" class="st1" width="8.8" height="8.8"/>
		<rect x="286.6" y="153" class="st1" width="8.8" height="8.8"/>
		<rect x="286.6" y="176.5" class="st1" width="8.8" height="8.8"/>
		<rect x="274.9" y="153" class="st1" width="8.8" height="8.8"/>
		<rect x="274.9" y="129.5" class="st1" width="8.8" height="8.8"/>
		<rect x="274.9" y="117.8" class="st1" width="8.8" height="8.8"/>
		<rect x="274.9" y="141.3" class="st1" width="8.8" height="8.8"/>
		<rect x="274.9" y="188.2" class="st1" width="8.8" height="8.8"/>
		<rect x="286.6" y="188.2" class="st1" width="8.8" height="8.8"/>
		<rect x="274.9" y="200" class="st1" width="8.8" height="8.8"/>
		<rect x="274.9" y="176.5" class="st1" width="8.8" height="8.8"/>
		<rect x="274.9" y="164.8" class="st1" width="8.8" height="8.8"/>
		<rect x="321.9" y="153" class="st1" width="8.8" height="8.8"/>
		<rect x="321.9" y="176.5" class="st1" width="8.8" height="8.8"/>
		<rect x="321.9" y="164.8" class="st1" width="8.8" height="8.8"/>
		<rect x="321.9" y="117.8" class="st1" width="8.8" height="8.8"/>
		<rect x="310.1" y="117.8" class="st1" width="8.8" height="8.8"/>
		<rect x="321.9" y="141.3" class="st1" width="8.8" height="8.8"/>
		<rect x="321.9" y="129.5" class="st1" width="8.8" height="8.8"/>
		<rect x="321.9" y="200" class="st1" width="8.8" height="8.8"/>
		<rect x="298.4" y="164.8" class="st1" width="8.8" height="8.8"/>
		<rect x="298.4" y="176.5" class="st1" width="8.8" height="8.8"/>
		<rect x="298.4" y="153" class="st1" width="8.8" height="8.8"/>
		<rect x="298.4" y="188.2" class="st1" width="8.8" height="8.8"/>
		<rect x="310.1" y="188.2" class="st1" width="8.8" height="8.8"/>
		<rect x="310.1" y="211.7" class="st1" width="8.8" height="8.8"/>
		<rect x="298.4" y="211.7" class="st1" width="8.8" height="8.8"/>
		<rect x="298.4" y="200" class="st1" width="8.8" height="8.8"/>
		<rect x="310.1" y="176.5" class="st1" width="8.8" height="8.8"/>
		<rect x="321.9" y="235.2" class="st1" width="8.8" height="8.8"/>
		<rect x="310.1" y="153" class="st1" width="8.8" height="8.8"/>
		<rect x="310.1" y="129.5" class="st1" width="8.8" height="8.8"/>
		<rect x="310.1" y="164.8" class="st1" width="8.8" height="8.8"/>
		<rect x="310.1" y="141.3" class="st1" width="8.8" height="8.8"/>
	</g>
</g>
</svg>
